<?xml version="1.0" standalone="no"?>
<!DOCTYPE svg PUBLIC "-//W3C//DTD SVG 20010904//EN"
 "http://www.w3.org/TR/2001/REC-SVG-20010904/DTD/svg10.dtd">
<svg version="1.0" xmlns="http://www.w3.org/2000/svg"
 width="700.000000pt" height="700.000000pt" viewBox="0 0 700.000000 700.000000"
 preserveAspectRatio="xMidYMid meet">
<metadata>
Created by potrace 1.11, written by Peter Selinger 2001-2013
</metadata>
<g transform="translate(0.000000,700.000000) scale(0.100000,-0.100000)"
fill="#000000" stroke="none">
<path d="M0 3500 l0 -3500 3500 0 3500 0 0 3500 0 3500 -3500 0 -3500 0 0
-3500z m1466 2732 c44 -22 104 -83 128 -129 8 -16 427 -1023 931 -2238 504
-1215 919 -2213 922 -2218 3 -5 426 1002 941 2237 735 1765 943 2255 970 2287
54 63 103 84 197 84 92 0 141 -20 192 -79 43 -48 56 -96 50 -175 -4 -60 -108
-312 -1063 -2596 -581 -1392 -1066 -2543 -1077 -2558 -29 -43 -94 -86 -155
-103 -51 -15 -60 -15 -118 1 -76 21 -139 63 -159 108 -8 17 -218 522 -466
1122 -248 600 -715 1725 -1036 2500 -322 776 -594 1437 -605 1470 -54 170 67
322 247 311 35 -2 78 -12 101 -24z m2589 -1146 c97 -45 143 -121 132 -219 -4
-37 -77 -221 -252 -637 -221 -526 -250 -589 -287 -628 -57 -57 -111 -82 -179
-82 -63 0 -122 25 -161 66 -35 38 -517 1218 -525 1286 -11 95 50 190 144 224
30 10 145 13 558 13 l520 1 50 -24z m-2911 -140 c89 -37 156 -138 156 -236 0
-30 -90 -895 -200 -1922 -221 -2067 -201 -1932 -286 -2007 -46 -40 -99 -61
-158 -61 -103 0 -214 104 -231 217 -7 42 388 3771 406 3841 34 124 201 215
313 168z m4894 -5 c44 -23 93 -73 116 -118 9 -18 21 -68 26 -110 21 -161 400
-3734 400 -3768 0 -79 -58 -160 -145 -201 -86 -41 -175 -28 -249 38 -85 74
-64 -75 -291 2046 -145 1354 -202 1927 -196 1948 22 77 67 130 141 163 59 27
148 28 198 2z"/>
<path d="M3340 4672 c0 -12 121 -296 130 -305 5 -6 89 177 137 301 4 9 -26 12
-131 12 -75 0 -136 -4 -136 -8z"/>
</g>
</svg>
