<svg width="1920" height="540" viewBox="0 0 1920 540" fill="none" xmlns="http://www.w3.org/2000/svg">
<path d="M605.385 -229.375C605.385 -229.375 758.205 84.2439 538.12 478.414C318.034 872.584 631.571 1163.84 1052.95 1166.24" stroke="white" stroke-width="4.3107" stroke-miterlimit="10"/>
<path d="M877.743 -134.152C877.743 -134.152 1034.26 73.6636 895.234 316.115C756.206 558.566 549.514 828.266 1117.22 1071.82" stroke="white" stroke-width="4.3107" stroke-miterlimit="10"/>
<path d="M662.355 1439.43C656.558 1434.14 78.3592 1261.16 239.475 893.745C400.591 526.226 277.655 360.433 -67.8647 159.105" stroke="white" stroke-width="4.3107" stroke-miterlimit="10"/>
<path d="M1895.15 -360.233C1895.15 -360.233 1906.74 -17.9667 1538.93 273.993C1171.13 565.952 1341.04 941.257 1731.13 1084.69" stroke="white" stroke-width="4.3107" stroke-miterlimit="10"/>
<path d="M1948.37 -188.152C1948.37 -188.152 2007.34 57.0943 1777.66 235.464C1547.98 413.834 1244.24 594.799 1669.81 1011.03" stroke="white" stroke-width="4.3107" stroke-miterlimit="10"/>
<path d="M1419.24 1065.93C1416.04 1059.14 852.035 736.736 1154.08 449.767C1456.12 162.799 1410.94 -32.1405 1173.87 -334.78" stroke="white" stroke-width="4.3107" stroke-miterlimit="10"/>
</svg>
