<svg width="45" height="58" viewBox="0 0 45 58" fill="none" xmlns="http://www.w3.org/2000/svg">
<g clip-path="url(#clip0)">
<path d="M22 19.1C21.6 19.1 21.2 18.9 21.1 18.5L17.6 9.90001C17.5 9.60001 17.5 9.20001 17.7 9.00001C17.9 8.70001 18.2 8.60001 18.5 8.60001H25.7C26 8.60001 26.3 8.80001 26.5 9.00001C26.7 9.30001 26.7 9.60001 26.6 9.90001L23 18.5C22.7 18.8 22.4 19.1 22 19.1ZM19.9 10.4L22 15.4L24.1 10.4H19.9Z" fill="white"/>
<path d="M43.4 39.9C42.9 39.9 42.5 39.5 42.4 39L39.4 10.9C39.3 10.4 39.7 9.90001 40.3 9.80001C40.8 9.70001 41.3 10.1 41.4 10.7L44.4 38.8C44.5 39.3 44.1 39.8 43.5 39.9H43.4Z" fill="white"/>
<path d="M1 39.9H0.9C0.4 39.8 0 39.3 0 38.8L3 10.7C3.1 10.2 3.6 9.79999 4.1 9.79999C4.6 9.89999 5 10.4 5 10.9L2 39C1.9 39.5 1.5 39.9 1 39.9Z" fill="white"/>
<path d="M1 47.4H43.4" stroke="white" stroke-width="2" stroke-miterlimit="10" stroke-linecap="round"/>
<path d="M1 57H43.4" stroke="white" stroke-width="2" stroke-miterlimit="10" stroke-linecap="round"/>
<path d="M37.5 0C37.9 0 38.2 0.1 38.4 0.3C38.6 0.5 38.7 0.7 38.7 1C38.7 1.2 38.7 1.3 38.6 1.6L22.9 39.2C22.8 39.4 22.6 39.6 22.4 39.7C22.2 39.8 22 39.9 21.8 39.9C21.6 39.9 21.4 39.8 21.1 39.7C20.9 39.6 20.7 39.4 20.7 39.2L5.2 1.8C5.2 1.7 5.1 1.6 5.1 1.5C5.1 1.4 5 1.3 5 1.1C5 0.8 5.1 0.5 5.3 0.3C5.6 0.1 5.9 0 6.1 0C6.7 0 7.1 0.3 7.4 0.9L22.2 36.6L21.5 36.5L36.4 0.7C36.7 0.2 37 0 37.5 0Z" fill="white"/>
</g>
<defs>
<clipPath id="clip0">
<rect width="44.4" height="58" fill="white"/>
</clipPath>
</defs>
</svg>
